<svg width="245" height="245" viewBox="0 0 245 245" fill="none" xmlns="http://www.w3.org/2000/svg">
    <path d="M0 112C0 94.3269 14.3269 80 32 80H213C230.673 80 245 94.3269 245 112V185C245 218.137 218.137 245 185 245H60C26.8629 245 0 218.137 0 185V112Z" fill="#D9D9D9"/>
    <path d="M0 40C0 17.9086 17.9086 0 40 0H122.5V80H40C17.9086 80 0 62.0914 0 40V40Z" fill="#D9D9D9"/>
    <path d="M122 0H185C218.137 0 245 26.8629 245 60V185C245 218.137 218.137 245 185 245H182C148.863 245 122 218.137 122 185V0Z" fill="#D9D9D9"/>
</svg>
